<?xml version="1.0" encoding="UTF-8" standalone="no"?>
<svg
   xmlns:dc="http://purl.org/dc/elements/1.1/"
   xmlns:cc="http://creativecommons.org/ns#"
   xmlns:rdf="http://www.w3.org/1999/02/22-rdf-syntax-ns#"
   xmlns:svg="http://www.w3.org/2000/svg"
   xmlns="http://www.w3.org/2000/svg"
   xmlns:sodipodi="http://sodipodi.sourceforge.net/DTD/sodipodi-0.dtd"
   xmlns:inkscape="http://www.inkscape.org/namespaces/inkscape"
   version="1.0"
   width="516.21277"
   height="515.19336"
   viewBox="0 0 5162.1277 5151.9336"
   preserveAspectRatio="xMidYMid meet"
   id="svg9"
   sodipodi:docname="SMR_token_18_vector.svg"
   inkscape:version="0.92.3 (2405546, 2018-03-11)">
  <metadata
     id="metadata15">
    <rdf:RDF>
      <cc:Work
         rdf:about="">
        <dc:format>image/svg+xml</dc:format>
        <dc:type
           rdf:resource="http://purl.org/dc/dcmitype/StillImage" />
        <dc:title></dc:title>
      </cc:Work>
    </rdf:RDF>
  </metadata>
  <defs
     id="defs13" />
  <sodipodi:namedview
     pagecolor="#ffffff"
     bordercolor="#666666"
     borderopacity="1"
     objecttolerance="10"
     gridtolerance="10"
     guidetolerance="10"
     inkscape:pageopacity="0"
     inkscape:pageshadow="2"
     inkscape:window-width="1484"
     inkscape:window-height="850"
     id="namedview11"
     showgrid="false"
     fit-margin-top="0"
     fit-margin-left="0"
     fit-margin-right="0"
     fit-margin-bottom="0"
     inkscape:zoom="0.185625"
     inkscape:cx="345.17066"
     inkscape:cy="348.15816"
     inkscape:window-x="0"
     inkscape:window-y="24"
     inkscape:window-maximized="0"
     inkscape:current-layer="svg9" />
  <g
     id="layer101"
     inkscape:export-xdpi="96"
     inkscape:export-ydpi="96"
     style="fill:#af5a0f;stroke:none"
     transform="translate(-4548.2934,-2474.648)">
    <path
       d="m 6980,7623 c -107,-8 -310,-35 -370,-49 -150,-34 -343,-89 -365,-104 -5,-3 -30,-12 -55,-19 -57,-16 -300,-134 -360,-175 -25,-17 -65,-42 -90,-55 -25,-14 -47,-27 -50,-30 -3,-3 -27,-21 -55,-40 -110,-75 -238,-185 -368,-316 -59,-60 -187,-210 -187,-219 0,-4 -5,-12 -10,-19 -6,-7 -24,-30 -40,-52 -16,-22 -35,-47 -42,-55 -14,-15 -19,-23 -56,-86 -12,-22 -34,-57 -47,-79 -14,-22 -30,-51 -36,-65 -18,-43 -51,-114 -60,-130 -5,-8 -14,-26 -20,-40 -6,-14 -17,-37 -25,-51 -7,-14 -23,-56 -34,-95 -12,-38 -30,-88 -41,-112 -10,-23 -19,-47 -19,-52 0,-6 89,-10 234,-10 231,0 234,0 248,23 8,12 18,35 22,50 8,36 83,194 107,229 11,14 19,33 19,42 0,9 4,16 10,16 5,0 12,11 16,25 3,14 9,25 13,25 3,0 17,18 31,40 14,22 28,40 32,40 5,0 8,5 8,11 0,6 11,25 25,43 14,17 32,40 40,51 46,61 79,98 167,187 53,54 101,98 107,98 5,0 14,6 18,14 11,20 161,137 206,161 20,11 37,23 37,27 0,5 7,8 15,8 9,0 21,5 28,11 28,24 154,91 252,133 22,9 52,24 67,32 14,7 33,14 41,14 8,0 36,9 63,19 119,46 194,62 459,97 311,41 761,-26 1042,-156 35,-17 70,-30 76,-30 7,0 23,-9 37,-20 14,-11 31,-20 38,-20 12,0 86,-45 109,-66 6,-6 25,-17 42,-24 17,-7 31,-16 31,-21 0,-5 9,-9 20,-9 11,0 20,-4 20,-10 0,-5 7,-10 15,-10 9,0 18,-7 21,-15 4,-8 12,-15 20,-15 8,0 14,-4 14,-9 0,-4 19,-21 42,-36 38,-26 184,-160 244,-225 13,-14 44,-47 69,-75 25,-27 62,-75 82,-105 20,-30 40,-56 45,-58 4,-2 8,-8 8,-12 0,-14 60,-100 69,-100 5,0 28,25 51,55 23,30 46,55 51,55 5,0 9,7 9,15 0,7 6,18 14,22 14,8 47,47 91,107 11,15 32,41 48,57 33,36 34,49 2,87 -14,17 -25,35 -25,41 0,6 -4,11 -9,11 -5,0 -20,17 -32,38 -31,49 -30,48 -141,165 -54,55 -98,105 -98,109 0,4 -5,8 -11,8 -6,0 -30,19 -54,43 -81,80 -192,167 -213,167 -6,0 -12,3 -14,8 -6,14 -90,74 -143,102 -11,6 -40,24 -65,40 -25,16 -79,45 -120,65 -41,21 -101,50 -132,66 -31,15 -83,36 -115,45 -32,9 -65,20 -73,24 -27,13 -114,42 -150,50 -39,8 -104,24 -195,47 -141,35 -483,59 -655,46 z"
       id="path2"
       inkscape:connector-curvature="0" />
    <path
       d="m 9323,6303 c -18,-20 -33,-40 -33,-44 0,-5 -9,-13 -20,-19 -11,-6 -20,-17 -20,-25 0,-8 -4,-15 -8,-15 -5,0 -37,-36 -72,-80 -36,-44 -70,-82 -77,-84 -7,-3 -13,-12 -13,-20 0,-7 -7,-16 -15,-20 -8,-3 -15,-10 -15,-15 0,-6 -10,-21 -22,-33 -13,-13 -41,-45 -63,-71 -22,-26 -53,-62 -68,-80 -16,-18 -58,-69 -95,-114 -36,-46 -69,-83 -74,-83 -4,0 -8,-5 -8,-12 0,-6 -7,-18 -15,-27 -106,-112 -225,-255 -225,-270 0,-6 -4,-11 -8,-11 -5,0 -26,-22 -48,-49 -22,-27 -66,-79 -98,-115 l -59,-66 h -193 -194 v 260 261 l -107,-3 -108,-3 -3,-369 -2,-369 31,-96 c 17,-53 40,-115 50,-139 10,-23 19,-49 19,-57 0,-8 10,-35 22,-60 21,-43 25,-46 58,-43 l 35,3 3,213 2,213 263,-4 c 279,-4 321,-10 364,-53 24,-24 24,-26 21,-193 -4,-218 0,-213 -161,-230 -62,-6 -244,-11 -404,-11 h -291 l -5,23 c -3,12 -17,54 -32,92 -15,39 -30,84 -35,100 -5,17 -21,62 -35,100 -14,39 -42,120 -61,180 -20,61 -44,130 -53,155 -10,25 -24,61 -30,80 -7,19 -30,85 -52,145 -22,61 -49,135 -60,165 -11,30 -24,69 -28,85 -19,75 -19,75 -150,75 -104,0 -119,-2 -124,-17 -3,-10 -17,-49 -32,-88 -36,-97 -103,-288 -125,-360 -10,-33 -33,-98 -50,-145 -18,-47 -35,-99 -39,-115 -5,-17 -13,-40 -19,-52 -7,-11 -25,-61 -41,-110 -39,-116 -50,-149 -71,-203 -10,-25 -22,-58 -27,-75 l -8,-30 -460,-3 c -561,-4 -584,-1 -633,87 -38,67 -27,211 20,252 11,10 46,19 86,23 243,24 318,37 377,67 71,36 88,50 127,108 43,61 58,128 58,258 0,191 -28,263 -133,342 -104,79 -73,76 -792,76 h -640 l -12,-55 c -17,-76 -32,-210 -42,-370 -14,-228 28,-607 87,-785 6,-16 20,-64 32,-105 28,-94 47,-145 71,-191 11,-20 19,-42 19,-48 0,-16 101,-223 117,-239 7,-7 13,-19 13,-26 0,-7 9,-23 20,-36 11,-13 20,-28 20,-35 0,-6 8,-20 18,-31 17,-20 24,-30 63,-91 12,-18 25,-33 30,-33 5,0 9,-5 9,-11 0,-22 199,-261 265,-318 16,-14 45,-41 63,-59 19,-17 38,-32 43,-32 4,0 12,-6 16,-12 10,-17 102,-99 132,-118 13,-8 58,-40 100,-70 42,-30 90,-62 106,-71 17,-9 56,-30 87,-48 82,-45 183,-94 258,-126 36,-15 83,-35 105,-45 22,-10 74,-28 115,-40 41,-12 95,-28 120,-35 209,-65 532,-93 840,-75 202,12 293,24 415,56 55,14 118,30 140,35 39,8 116,35 225,79 30,12 69,27 85,34 17,6 43,19 58,29 14,9 33,17 40,17 8,0 22,9 32,20 10,11 23,20 30,20 16,0 142,67 182,96 17,13 36,24 42,24 6,0 11,4 11,8 0,4 15,16 33,27 17,10 37,23 42,27 6,4 43,33 83,64 39,31 72,61 72,65 0,5 5,9 10,9 22,0 350,329 350,351 0,5 37,56 69,95 8,10 71,105 99,149 7,11 18,31 24,45 7,14 26,45 43,70 36,52 69,121 114,235 17,44 37,89 43,100 6,11 15,36 19,55 5,19 21,76 37,125 101,311 140,748 92,1025 -11,63 -20,130 -20,148 0,18 -9,67 -21,110 -11,42 -28,104 -36,137 -8,33 -19,74 -25,90 -28,82 -39,112 -48,130 -5,11 -17,43 -25,70 -18,54 -145,315 -154,315 -3,0 -21,-17 -38,-37 z m -159,-623 c 4,-25 15,-74 26,-110 44,-146 60,-284 61,-510 1,-118 -2,-237 -5,-265 -17,-121 -74,-361 -106,-450 -10,-27 -22,-61 -26,-75 -6,-22 -57,-131 -92,-197 -7,-13 -17,-33 -24,-45 -6,-13 -16,-32 -22,-43 -25,-47 -151,-231 -163,-238 -7,-4 -13,-12 -13,-17 0,-5 -10,-20 -22,-33 -13,-13 -44,-48 -70,-79 -27,-31 -94,-98 -150,-148 -57,-50 -110,-98 -119,-106 -9,-7 -19,-14 -23,-14 -4,0 -12,-5 -19,-10 -7,-6 -30,-24 -52,-40 -22,-16 -45,-34 -51,-39 -6,-5 -38,-23 -72,-41 -33,-17 -66,-38 -73,-46 -6,-8 -16,-14 -22,-14 -5,0 -33,-11 -61,-24 -28,-13 -76,-34 -106,-46 -30,-13 -73,-31 -95,-41 -22,-10 -69,-25 -105,-34 -36,-9 -90,-26 -121,-36 -31,-10 -68,-19 -83,-19 -14,0 -70,-10 -124,-21 -88,-19 -119,-21 -342,-16 -173,3 -264,9 -310,20 -36,9 -108,26 -160,38 -114,27 -298,89 -334,112 -14,9 -30,17 -36,17 -6,0 -28,9 -48,19 -20,11 -62,32 -92,47 -30,14 -64,34 -75,43 -18,15 -36,25 -90,55 -11,6 -22,13 -25,16 -3,3 -23,18 -45,35 -22,16 -42,31 -45,35 -4,5 -96,80 -128,105 -37,29 -189,191 -219,232 -19,26 -38,50 -43,51 -6,2 -10,9 -10,15 0,7 -17,31 -38,54 -37,42 -53,66 -100,153 -13,25 -30,52 -36,60 -7,8 -22,38 -35,65 -13,28 -28,59 -33,69 -15,29 -58,144 -73,196 -7,25 -20,63 -28,85 -38,108 -82,359 -92,536 -6,97 7,285 27,372 l 10,47 h 396 c 455,0 470,-2 520,-74 26,-37 27,-45 27,-157 v -118 l -35,-36 c -19,-20 -42,-41 -51,-46 -9,-4 -83,-15 -165,-24 -244,-24 -285,-35 -360,-94 -54,-42 -81,-111 -98,-248 -7,-58 13,-171 41,-230 21,-46 124,-149 155,-156 13,-3 41,-12 63,-21 34,-13 125,-15 637,-16 h 597 l 4,98 c 3,91 13,130 51,217 8,17 21,56 31,88 10,32 22,60 26,63 5,3 9,13 9,22 0,18 34,110 56,154 8,14 14,35 14,45 0,10 4,23 9,28 8,9 22,45 71,180 10,28 28,75 40,105 12,30 31,81 42,114 22,63 30,62 49,-9 11,-41 52,-154 70,-190 5,-11 13,-33 18,-50 9,-29 34,-97 81,-215 27,-69 59,-159 67,-185 3,-11 14,-38 24,-61 11,-22 19,-47 19,-55 0,-8 6,-23 14,-34 26,-37 39,-99 45,-205 l 6,-105 h 485 c 479,0 486,0 557,23 39,13 77,30 84,38 6,8 17,14 23,14 17,0 54,60 76,123 17,49 20,82 20,239 -1,167 -3,188 -23,235 -28,65 -87,134 -139,163 -41,23 -41,24 2,72 8,9 21,25 29,35 8,10 33,38 55,63 74,83 100,114 154,183 29,38 68,85 85,105 18,19 42,47 54,61 13,14 28,33 35,41 7,8 36,41 63,75 74,90 79,95 86,81 4,-6 9,-31 13,-56 z"
       id="path4"
       inkscape:connector-curvature="0" />
    <path
       d="m 6400,5000 v -570 h 29 c 36,0 54,23 76,99 9,31 25,75 36,99 10,23 19,49 19,58 0,8 9,34 20,56 19,40 20,62 20,435 v 393 h -100 -100 z"
       id="path6"
       inkscape:connector-curvature="0" />
  </g>
</svg>
